<svg width="75" height="75" viewBox="0 0 75 75" fill="none" xmlns="http://www.w3.org/2000/svg">
<rect width="75" height="75" rx="37.5" fill="#FF6500"/>
<path d="M44.275 23.5816V53.4114C44.275 55.4885 41.8226 56.5896 40.271 55.2094L31.6239 47.5209C31.3596 47.2864 31.0186 47.157 30.6652 47.1571H23.5813C23.0125 47.1571 22.4492 47.045 21.9238 46.8274C21.3983 46.6097 20.9208 46.2907 20.5186 45.8885C20.1164 45.4863 19.7974 45.0088 19.5797 44.4833C19.362 43.9578 19.25 43.3946 19.25 42.8258V34.1672C19.2505 33.0188 19.7071 31.9176 20.5193 31.1058C21.3315 30.2939 22.4329 29.8379 23.5813 29.8379H30.6652C31.0188 29.8374 31.3599 29.7073 31.6239 29.4721L40.2691 21.7856C41.8225 20.4054 44.275 21.5065 44.275 23.5816ZM51.9596 26.754C52.2672 26.5261 52.6528 26.4297 53.0314 26.486C53.4101 26.5423 53.7509 26.7467 53.9789 27.0543C56.4339 30.3657 57.7563 34.3801 57.75 38.5023C57.7553 42.624 56.4323 46.6377 53.977 49.9483C53.7467 50.2494 53.4072 50.4478 53.0318 50.5007C52.6564 50.5536 52.2753 50.4567 51.9707 50.231C51.6662 50.0053 51.4626 49.6689 51.404 49.2944C51.3453 48.9198 51.4364 48.5373 51.6574 48.2293C53.744 45.416 54.868 42.0049 54.8625 38.5023C54.8684 34.999 53.7444 31.5872 51.6574 28.7733C51.5443 28.6208 51.4625 28.4475 51.4165 28.2634C51.3705 28.0792 51.3612 27.8878 51.3893 27.7C51.4174 27.5123 51.4822 27.3319 51.5801 27.1693C51.6779 27.0066 51.8069 26.8668 51.9596 26.754ZM48.4003 31.5126C48.567 31.4222 48.7499 31.3655 48.9385 31.3458C49.1271 31.3261 49.3178 31.3437 49.4996 31.3977C49.6814 31.4517 49.8508 31.541 49.9981 31.6604C50.1453 31.7799 50.2677 31.9272 50.358 32.094C51.3898 33.9997 51.975 36.1846 51.975 38.5023C51.976 40.7388 51.4203 42.9405 50.358 44.9087C50.2678 45.0755 50.1455 45.223 49.9983 45.3426C49.8511 45.4622 49.6817 45.5516 49.4999 45.6058C49.3181 45.6599 49.1275 45.6778 48.9388 45.6582C48.7501 45.6387 48.5671 45.5822 48.4003 45.492C48.2334 45.4017 48.086 45.2795 47.9664 45.1323C47.8468 44.985 47.7573 44.8157 47.7032 44.6339C47.649 44.4521 47.6312 44.2614 47.6507 44.0727C47.6703 43.8841 47.7268 43.7011 47.817 43.5342C48.6514 41.9883 49.088 40.259 49.0875 38.5023C49.0875 36.6774 48.6255 34.9641 47.817 33.4684C47.6352 33.1317 47.5944 32.7365 47.7038 32.3698C47.8132 32.003 48.0637 31.6947 48.4003 31.5126Z" fill="white"/>
</svg>
