<svg width="25" height="25" viewBox="0 0 25 25" fill="none" xmlns="http://www.w3.org/2000/svg">
<path fill-rule="evenodd" clip-rule="evenodd" d="M2.5 12.5C2.5 6.977 6.977 2.5 12.5 2.5C18.023 2.5 22.5 6.977 22.5 12.5C22.5 18.023 18.023 22.5 12.5 22.5C6.977 22.5 2.5 18.023 2.5 12.5ZM12.5 4.5C10.3783 4.5 8.34344 5.34285 6.84315 6.84315C5.34285 8.34344 4.5 10.3783 4.5 12.5C4.5 14.6217 5.34285 16.6566 6.84315 18.1569C8.34344 19.6571 10.3783 20.5 12.5 20.5C14.6217 20.5 16.6566 19.6571 18.1569 18.1569C19.6571 16.6566 20.5 14.6217 20.5 12.5C20.5 10.3783 19.6571 8.34344 18.1569 6.84315C16.6566 5.34285 14.6217 4.5 12.5 4.5Z" fill="white"/>
<path fill-rule="evenodd" clip-rule="evenodd" d="M13.5 7.5C13.5 7.23478 13.3946 6.98043 13.2071 6.79289C13.0196 6.60536 12.7652 6.5 12.5 6.5C12.2348 6.5 11.9804 6.60536 11.7929 6.79289C11.6054 6.98043 11.5 7.23478 11.5 7.5V11.5H7.5C7.23478 11.5 6.98043 11.6054 6.79289 11.7929C6.60536 11.9804 6.5 12.2348 6.5 12.5C6.5 12.7652 6.60536 13.0196 6.79289 13.2071C6.98043 13.3946 7.23478 13.5 7.5 13.5H11.5V17.5C11.5 17.7652 11.6054 18.0196 11.7929 18.2071C11.9804 18.3946 12.2348 18.5 12.5 18.5C12.7652 18.5 13.0196 18.3946 13.2071 18.2071C13.3946 18.0196 13.5 17.7652 13.5 17.5V13.5H17.5C17.7652 13.5 18.0196 13.3946 18.2071 13.2071C18.3946 13.0196 18.5 12.7652 18.5 12.5C18.5 12.2348 18.3946 11.9804 18.2071 11.7929C18.0196 11.6054 17.7652 11.5 17.5 11.5H13.5V7.5Z" fill="white"/>
</svg>
