<svg width="21" height="21" viewBox="0 0 21 21" fill="none" xmlns="http://www.w3.org/2000/svg">
<path fill-rule="evenodd" clip-rule="evenodd" d="M0.5 10.5C0.5 4.977 4.977 0.5 10.5 0.5C16.023 0.5 20.5 4.977 20.5 10.5C20.5 16.023 16.023 20.5 10.5 20.5C4.977 20.5 0.5 16.023 0.5 10.5ZM10.5 2.5C8.37827 2.5 6.34344 3.34285 4.84315 4.84315C3.34285 6.34344 2.5 8.37827 2.5 10.5C2.5 12.6217 3.34285 14.6566 4.84315 16.1569C6.34344 17.6571 8.37827 18.5 10.5 18.5C12.6217 18.5 14.6566 17.6571 16.1569 16.1569C17.6571 14.6566 18.5 12.6217 18.5 10.5C18.5 8.37827 17.6571 6.34344 16.1569 4.84315C14.6566 3.34285 12.6217 2.5 10.5 2.5Z" fill="white"/>
<path fill-rule="evenodd" clip-rule="evenodd" d="M11.5 5.5C11.5 5.23478 11.3946 4.98043 11.2071 4.79289C11.0196 4.60536 10.7652 4.5 10.5 4.5C10.2348 4.5 9.98043 4.60536 9.79289 4.79289C9.60536 4.98043 9.5 5.23478 9.5 5.5V9.5H5.5C5.23478 9.5 4.98043 9.60536 4.79289 9.79289C4.60536 9.98043 4.5 10.2348 4.5 10.5C4.5 10.7652 4.60536 11.0196 4.79289 11.2071C4.98043 11.3946 5.23478 11.5 5.5 11.5H9.5V15.5C9.5 15.7652 9.60536 16.0196 9.79289 16.2071C9.98043 16.3946 10.2348 16.5 10.5 16.5C10.7652 16.5 11.0196 16.3946 11.2071 16.2071C11.3946 16.0196 11.5 15.7652 11.5 15.5V11.5H15.5C15.7652 11.5 16.0196 11.3946 16.2071 11.2071C16.3946 11.0196 16.5 10.7652 16.5 10.5C16.5 10.2348 16.3946 9.98043 16.2071 9.79289C16.0196 9.60536 15.7652 9.5 15.5 9.5H11.5V5.5Z" fill="white"/>
</svg>
