<svg width="75" height="75" viewBox="0 0 75 75" fill="none" xmlns="http://www.w3.org/2000/svg">
<rect width="75" height="75" rx="37.5" fill="#D3E3F7"/>
<path d="M44.2751 23.5814V53.4112C44.2751 55.4882 41.8227 56.5893 40.2711 55.2091L31.624 47.5207C31.3598 47.2862 31.0187 47.1567 30.6654 47.1568H23.5814C23.0126 47.1568 22.4494 47.0448 21.9239 46.8271C21.3984 46.6095 20.9209 46.2904 20.5187 45.8882C20.1165 45.486 19.7975 45.0086 19.5798 44.4831C19.3622 43.9576 19.2501 43.3944 19.2501 42.8256V34.1669C19.2506 33.0185 19.7072 31.9174 20.5194 31.1055C21.3316 30.2937 22.433 29.8376 23.5814 29.8376H30.6654C31.0189 29.8372 31.36 29.707 31.624 29.4719L40.2692 21.7853C41.8227 20.4051 44.2751 21.5062 44.2751 23.5814ZM51.9597 26.7538C52.2673 26.5258 52.6529 26.4294 53.0316 26.4858C53.4103 26.5421 53.7511 26.7465 53.979 27.0541C56.434 30.3654 57.7564 34.3799 57.7501 38.502C57.7555 42.6238 56.4324 46.6375 53.9771 49.9481C53.7468 50.2492 53.4073 50.4476 53.0319 50.5005C52.6565 50.5534 52.2754 50.4565 51.9708 50.2308C51.6663 50.0051 51.4627 49.6686 51.4041 49.2941C51.3455 48.9196 51.4365 48.537 51.6575 48.2291C53.7441 45.4158 54.8681 42.0047 54.8626 38.502C54.8685 34.9987 53.7445 31.5869 51.6575 28.7731C51.5444 28.6206 51.4626 28.4473 51.4166 28.2631C51.3706 28.079 51.3614 27.8875 51.3894 27.6998C51.4175 27.512 51.4823 27.3317 51.5802 27.169C51.678 27.0064 51.807 26.8665 51.9597 26.7538ZM48.4004 31.5124C48.5671 31.4219 48.75 31.3653 48.9386 31.3455C49.1272 31.3258 49.3179 31.3435 49.4997 31.3974C49.6815 31.4514 49.8509 31.5407 49.9982 31.6602C50.1455 31.7796 50.2678 31.927 50.3581 32.0937C51.3899 33.9995 51.9751 36.1843 51.9751 38.502C51.9761 40.7386 51.4204 42.9403 50.3581 44.9084C50.2679 45.0753 50.1456 45.2227 49.9984 45.3423C49.8512 45.4619 49.6819 45.5514 49.5001 45.6055C49.3183 45.6597 49.1276 45.6775 48.9389 45.658C48.7502 45.6385 48.5672 45.582 48.4004 45.4917C48.2336 45.4015 48.0861 45.2792 47.9665 45.132C47.8469 44.9848 47.7575 44.8154 47.7033 44.6336C47.6491 44.4519 47.6313 44.2612 47.6508 44.0725C47.6704 43.8838 47.7269 43.7008 47.8171 43.534C48.6515 41.988 49.0881 40.2588 49.0876 38.502C49.0876 36.6771 48.6256 34.9639 47.8171 33.4682C47.6353 33.1314 47.5946 32.7363 47.7039 32.3695C47.8133 32.0028 48.0638 31.6945 48.4004 31.5124Z" fill="#5090DD"/>
</svg>
