<svg width="24" height="22" viewBox="0 0 24 22" fill="none" xmlns="http://www.w3.org/2000/svg">
<path d="M17.25 7.4375C16.5882 7.4383 15.9395 7.62151 15.375 7.967V1.8125C15.375 1.51413 15.2565 1.22798 15.0455 1.017C14.8345 0.806026 14.5484 0.6875 14.25 0.6875C13.9516 0.6875 13.6655 0.806026 13.4545 1.017C13.2435 1.22798 13.125 1.51413 13.125 1.8125V16.0625C13.1253 16.3144 13.2102 16.559 13.366 16.757C13.5218 16.955 13.7396 17.0949 13.9844 17.1544C14.2292 17.2139 14.487 17.1894 14.7162 17.085C14.9455 16.9806 15.1331 16.8022 15.249 16.5785C15.8565 16.979 16.539 17.1875 17.25 17.1875C19.5255 17.1875 21.375 15.0005 21.375 12.3125C21.375 9.6245 19.5255 7.4375 17.25 7.4375ZM17.25 14.9375C16.464 14.9375 15.375 14.0255 15.375 12.3125C15.375 10.5995 16.464 9.6875 17.25 9.6875C18.036 9.6875 19.125 10.5995 19.125 12.3125C19.125 14.0255 18.036 14.9375 17.25 14.9375ZM7.3005 6.941L7.008 6.9305C5.79 6.9125 4.8195 7.1405 4.101 7.643C3.87444 7.82103 3.72471 8.0791 3.6826 8.36415C3.6405 8.6492 3.70922 8.93954 3.87464 9.17547C4.04006 9.4114 4.28959 9.57497 4.57192 9.63254C4.85425 9.69012 5.14791 9.63732 5.3925 9.485C5.6265 9.32 6.135 9.134 7.191 9.188C8.0085 9.2285 8.4285 9.479 8.568 10.046C7.75958 9.88593 6.93118 9.85253 6.1125 9.947C3.993 10.2035 2.6235 11.624 2.6235 13.5635C2.6235 15.6635 4.149 17.189 6.249 17.189C7.029 17.189 7.842 16.973 8.7255 16.532C8.9055 16.922 9.3045 17.189 9.7725 17.189L9.9 17.1785C10.1664 17.14 10.4104 17.0079 10.5882 16.8059C10.7661 16.6039 10.8661 16.3451 10.8705 16.076V10.5635L10.866 10.3415C10.776 8.3195 9.444 7.049 7.296 6.941H7.3005ZM8.5875 12.398L8.622 14.021L8.5425 14.075C6.3615 15.5105 4.8705 15.0755 4.872 13.601C4.872 12.806 5.3805 12.341 6.3825 12.218C7.1222 12.1334 7.87131 12.1946 8.5875 12.398ZM2.25 21.3125H21.75C22.9905 21.3125 24 20.303 24 19.0625V17.9375C24 17.6391 23.8815 17.353 23.6705 17.142C23.4595 16.931 23.1734 16.8125 22.875 16.8125C22.5766 16.8125 22.2905 16.931 22.0795 17.142C21.8685 17.353 21.75 17.6391 21.75 17.9375V19.0625H2.25V17.9375C2.25 17.6391 2.13147 17.353 1.9205 17.142C1.70952 16.931 1.42337 16.8125 1.125 16.8125C0.826631 16.8125 0.540483 16.931 0.329505 17.142C0.118526 17.353 0 17.6391 0 17.9375L0 19.0625C0 20.303 1.0095 21.3125 2.25 21.3125Z" fill="white"/>
</svg>
